<svg width="1081" height="1712" viewBox="0 0 1081 1712" fill="none" xmlns="http://www.w3.org/2000/svg">
<path d="M486.361 642.116C519.118 632.729 528.201 659.703 531.336 687.109C539.12 754.653 539.228 932.684 531.336 1000.12C529.174 1018.57 524.633 1044.25 501.606 1046.62C475.985 1049.21 392.637 1024.83 364.529 1014.15C323.88 998.609 201.717 942.718 234.366 889.633C284.961 857.911 448.307 652.906 486.361 642.116Z" fill="#005291"/>
<path d="M487.117 0.443493C522.252 -2.90133 527.55 12.7439 531.226 45.0052C542.902 147.076 522.469 269.972 530.793 374.525C526.036 402.039 498.357 414.447 475.546 396.32L234.251 155.492C202.035 118.375 288.519 68.9587 319.006 53.3135C358.79 32.9209 443.222 4.7595 487.006 0.551496L487.117 0.443493Z" fill="#EE7116"/>
<path d="M683.562 488.82C682.373 488.065 676.753 464.759 677.186 460.551C681.402 422.571 891.671 248.21 924.319 201.166C970.265 162.647 1027.45 275.076 1043.24 311.545C1059.02 348.015 1079.34 422.787 1080.97 460.551C1081.4 470.37 1077.83 488.82 1068.75 488.82C1018.7 488.82 699.562 499.502 683.562 488.82Z" fill="#005291"/>
<path d="M621.056 1.23294C638.462 -0.709221 695.108 15.4757 715.54 21.7337C749.594 32.1998 901.813 96.1823 893.813 136.968C888.732 162.863 665.486 353.626 637.378 396.354C619.973 410.38 593.377 409.841 590.35 383.191C600.404 274.322 576.839 142.147 589.812 36.2996C592.298 16.2307 598.243 3.71458 620.945 1.23294H621.056Z" fill="#EE7116"/>
<path d="M398.261 1697.45C432.856 1704.47 439.778 1689.36 446.805 1657.75C468.967 1557.4 461.509 1433.1 480.536 1329.95C478.698 1302.12 452.426 1286.9 427.886 1302.55L162.91 1517.16C127.018 1550.71 207.886 1608.76 236.643 1627.53C274.048 1651.92 355.126 1688.71 398.261 1697.34V1697.45Z" fill="#EE7116"/>
<path d="M644.211 1232.11C642.914 1232.76 634.913 1255.31 635.021 1259.63C635.237 1297.82 826.264 1493.01 853.94 1543.18C895.669 1586.23 964.21 1480.39 983.669 1445.64C1002.7 1411.65 1031.13 1338.72 1036.65 1301.28C1038.05 1291.56 1036.43 1272.79 1027.46 1271.93C977.726 1266.75 661.295 1223.16 644.322 1232.11H644.211Z" fill="#EE7116"/>
<path d="M531.546 1710.66C548.627 1714.32 606.683 1704.18 627.656 1700.08C662.574 1693.28 820.626 1645.27 816.95 1603.84C814.572 1577.51 612.306 1364.74 588.846 1319.42C572.955 1303.67 546.466 1301.51 540.736 1327.62C539.439 1437.03 502.357 1565.97 504.302 1672.57C504.627 1692.85 509.278 1705.8 531.657 1710.66H531.546Z" fill="#EE7116"/>
<path d="M425.283 556.355C437.932 560.348 450.69 593.256 435.555 604.585L164.203 859.117C130.581 859.872 75.9852 735.897 65.3906 704.391C58.796 684.753 17.5023 556.355 52.8536 556.355H425.394H425.283Z" fill="#EE7116"/>
<path d="M52.7362 488.803C3.87138 473.697 88.1955 282.503 109.277 249.487C126.466 222.62 154.686 173.743 188.632 201.041L429.927 441.867C444.197 451.794 438.033 488.803 425.276 488.803H52.7362Z" fill="#EE7116"/>
<path d="M404.306 1242.59C406.252 1254.35 401.172 1266.76 391.875 1274.31L101.281 1485.57C61.4976 1496.69 27.8726 1391.92 19.4402 1360.2C9.71044 1323.62 -5.20722 1229.64 1.81981 1195.54C6.25224 1174.18 24.3067 1171.81 42.7932 1172.24C108.415 1173.53 313.602 1206.44 378.25 1224.35C389.386 1227.48 402.036 1228.35 404.306 1242.59Z" fill="#005291"/>
<path d="M660.415 1142.68C660.091 1144.08 671.337 1165.23 674.472 1168.03C702.905 1193.71 976.095 1185.19 1031.88 1198.78C1091.88 1197.27 1059.98 1075.24 1047.55 1037.48C1035.33 1000.47 1000.63 930.226 976.848 900.878C970.686 893.325 955.766 881.779 948.955 887.821C911.55 920.946 665.499 1124.12 660.526 1142.68H660.415Z" fill="#EE7116"/>
<path d="M599.018 1097.57C599.775 1098.75 623.122 1104.36 627.338 1103.83C665.392 1099.62 839.879 889.541 887.014 856.848C925.609 810.883 812.855 754.021 776.314 738.268C739.774 722.515 664.743 702.339 626.906 700.72C617.068 700.289 598.585 703.849 598.585 712.913C598.585 762.869 588.315 1081.38 599.018 1097.35V1097.57Z" fill="#005291"/>
</svg>
