<svg xmlns="http://www.w3.org/2000/svg" width="2000" height="2000" fill="none"><path fill="#005291" d="M945.361 786.117c32.757-9.387 41.84 17.586 44.975 44.992 7.784 67.544 7.892 245.571 0 313.011-2.162 18.45-6.703 44.13-29.73 46.5-25.621 2.59-108.969-21.79-137.077-32.47-40.649-15.54-162.812-71.43-130.163-124.52 50.595-31.72 213.941-236.724 251.995-247.513"/><path fill="#EE7116" d="M946.117 144.443c35.135-3.344 40.433 12.301 44.109 44.562 11.674 102.071-8.757 224.967-.433 329.52-4.757 27.514-32.436 39.922-55.247 21.795L693.251 299.492c-32.216-37.117 54.268-86.533 84.755-102.178 39.784-20.393 124.216-48.555 168-52.763z"/><path fill="#005291" d="M1142.56 632.821c-1.19-.755-6.81-24.061-6.37-28.269 4.21-37.98 214.48-212.342 247.13-259.385 45.95-38.52 103.13 73.909 118.92 110.379 15.78 36.469 36.1 111.242 37.73 149.006.43 9.818-3.14 28.269-12.22 28.269-50.05 0-369.19 10.682-385.19 0"/><path fill="#EE7116" d="M1080.06 145.233c17.4-1.942 74.05 14.243 94.48 20.501 34.05 10.466 186.27 74.449 178.27 115.234-5.08 25.895-228.32 216.659-256.43 259.386-17.41 14.027-44 13.488-47.03-13.163 10.05-108.869-13.51-241.043-.54-346.891 2.49-20.069 8.43-32.585 31.13-35.067zM857.262 1841.45c34.595 7.02 41.516-8.09 48.544-39.7 22.162-100.35 14.703-224.65 33.731-327.8-1.838-27.83-28.11-43.05-52.65-27.4l-264.976 214.61c-35.892 33.55 44.976 91.6 73.733 110.37 37.405 24.39 118.483 61.18 161.618 69.81zM1103.21 1376.11c-1.3.65-9.3 23.2-9.19 27.52.22 38.19 191.24 233.38 218.92 283.55 41.73 43.05 110.27-62.8 129.73-97.54 19.03-33.99 47.46-106.92 52.98-144.37 1.4-9.71-.22-28.48-9.19-29.34-49.73-5.18-366.16-48.77-383.14-39.82zM990.545 1854.66c17.085 3.66 75.135-6.48 96.105-10.58 34.92-6.8 192.97-54.81 189.3-96.24-2.38-26.33-204.65-239.1-228.1-284.42-15.9-15.75-42.39-17.91-48.115 8.2-1.297 109.41-38.379 238.35-36.433 344.95.324 20.28 4.975 33.23 27.354 38.09zM884.284 700.355c12.649 3.993 25.407 36.901 10.272 48.23L623.204 1003.12c-33.622.75-88.218-123.223-98.812-154.729-6.595-19.638-47.889-148.036-12.537-148.036h372.54zM511.735 632.802c-48.865-15.106 35.46-206.3 56.541-239.316 17.189-26.867 45.409-75.744 79.355-48.446l241.295 240.826c14.27 9.927 8.106 46.936-4.651 46.936z"/><path fill="#005291" d="M863.306 1386.59c1.946 11.76-3.134 24.17-12.431 31.72l-290.594 211.26c-39.783 11.12-73.408-93.65-81.841-125.37-9.73-36.58-24.647-130.56-17.62-164.66 4.432-21.36 22.487-23.73 40.973-23.3 65.622 1.29 270.809 34.2 335.457 52.11 11.136 3.13 23.786 3.99 26.056 18.24"/><path fill="#EE7116" d="M1119.41 1286.68c-.32 1.4 10.93 22.55 14.06 25.35 28.43 25.68 301.62 17.16 357.41 30.75 60-1.51 28.1-123.54 15.67-161.3-12.22-37.01-46.92-107.25-70.7-136.6-6.17-7.55-21.09-19.1-27.9-13.06-37.4 33.13-283.45 236.3-288.43 254.86z"/><path fill="#005291" d="M1058.02 1241.57c.76 1.18 24.1 6.79 28.32 6.25 38.05-4.2 212.54-214.28 259.68-246.97 38.59-45.968-74.16-102.829-110.7-118.583-36.55-15.753-111.58-35.929-149.41-37.548-9.84-.431-28.32 3.129-28.32 12.193 0 49.956-10.27 368.468.43 384.438z"/></svg>